<mxfile modified="2023-03-15T22:10:52.144Z" host="Electron" agent="5.0 (Windows NT 10.0; Win64; x64) AppleWebKit/537.36 (KHTML, like Gecko) draw.io/20.3.0 Chrome/104.0.5112.114 Electron/20.1.3 Safari/537.36" etag="UTUhk9v3bSzehM8tzlNA" compressed="false" version="20.3.0" type="device">
  <diagram id="_paZvpOYSD2itmKFvVEi" name="Grp Role">
    <mxGraphModel dx="782" dy="517" grid="1" gridSize="10" guides="1" tooltips="1" connect="1" arrows="1" fold="1" page="1" pageScale="1" pageWidth="827" pageHeight="1169" math="0" shadow="0">
      <root>
        <mxCell id="jJMDsLOJsHRA9ecIZqBr-0" />
        <mxCell id="jJMDsLOJsHRA9ecIZqBr-1" parent="jJMDsLOJsHRA9ecIZqBr-0" />
        <mxCell id="3Mk5R_yZO1PZWtC-fWX1-0" value="" style="fontStyle=1;align=center;verticalAlign=top;childLayout=stackLayout;horizontal=1;horizontalStack=0;resizeParent=1;resizeParentMax=0;resizeLast=0;marginBottom=0;strokeColor=#82b366;strokeWidth=2;fillColor=none;" parent="jJMDsLOJsHRA9ecIZqBr-1" vertex="1">
          <mxGeometry x="360" y="160" width="120" height="63" as="geometry" />
        </mxCell>
        <mxCell id="3Mk5R_yZO1PZWtC-fWX1-1" value="Accept Invitation &lt;br&gt;and Terms&amp;nbsp;to &lt;br&gt;Role in Group" style="html=1;align=left;spacingLeft=4;verticalAlign=middle;strokeColor=none;fillColor=none;fontStyle=1" parent="3Mk5R_yZO1PZWtC-fWX1-0" vertex="1">
          <mxGeometry width="120" height="30" as="geometry" />
        </mxCell>
        <mxCell id="3Mk5R_yZO1PZWtC-fWX1-2" value="" style="shape=ellipse;" parent="3Mk5R_yZO1PZWtC-fWX1-1" vertex="1">
          <mxGeometry x="1" width="10" height="16" relative="1" as="geometry">
            <mxPoint x="-25" y="7" as="offset" />
          </mxGeometry>
        </mxCell>
        <mxCell id="3Mk5R_yZO1PZWtC-fWX1-3" value="" style="line;strokeWidth=1;fillColor=none;align=left;verticalAlign=middle;spacingTop=-1;spacingLeft=3;spacingRight=3;rotatable=0;labelPosition=right;points=[];portConstraint=eastwest;" parent="3Mk5R_yZO1PZWtC-fWX1-0" vertex="1">
          <mxGeometry y="30" width="120" height="8" as="geometry" />
        </mxCell>
        <mxCell id="3Mk5R_yZO1PZWtC-fWX1-4" value="." style="html=1;align=center;spacingLeft=4;verticalAlign=top;strokeColor=none;fillColor=none;" parent="3Mk5R_yZO1PZWtC-fWX1-0" vertex="1">
          <mxGeometry y="38" width="120" height="25" as="geometry" />
        </mxCell>
        <mxCell id="3Mk5R_yZO1PZWtC-fWX1-10" value="" style="fontStyle=1;align=center;verticalAlign=top;childLayout=stackLayout;horizontal=1;horizontalStack=0;resizeParent=1;resizeParentMax=0;resizeLast=0;marginBottom=0;strokeColor=#82b366;strokeWidth=2;fillColor=none;" parent="jJMDsLOJsHRA9ecIZqBr-1" vertex="1">
          <mxGeometry x="360" y="257" width="120" height="63" as="geometry" />
        </mxCell>
        <mxCell id="3Mk5R_yZO1PZWtC-fWX1-11" value="Update&lt;br&gt;Group Relation&lt;br&gt;Profile &amp;amp; Name" style="html=1;align=left;spacingLeft=4;verticalAlign=middle;strokeColor=none;fillColor=none;fontStyle=1" parent="3Mk5R_yZO1PZWtC-fWX1-10" vertex="1">
          <mxGeometry width="120" height="30" as="geometry" />
        </mxCell>
        <mxCell id="3Mk5R_yZO1PZWtC-fWX1-12" value="" style="shape=ellipse;" parent="3Mk5R_yZO1PZWtC-fWX1-11" vertex="1">
          <mxGeometry x="1" width="10" height="16" relative="1" as="geometry">
            <mxPoint x="-25" y="7" as="offset" />
          </mxGeometry>
        </mxCell>
        <mxCell id="3Mk5R_yZO1PZWtC-fWX1-13" value="" style="line;strokeWidth=1;fillColor=none;align=left;verticalAlign=middle;spacingTop=-1;spacingLeft=3;spacingRight=3;rotatable=0;labelPosition=right;points=[];portConstraint=eastwest;" parent="3Mk5R_yZO1PZWtC-fWX1-10" vertex="1">
          <mxGeometry y="30" width="120" height="8" as="geometry" />
        </mxCell>
        <mxCell id="3Mk5R_yZO1PZWtC-fWX1-14" value="." style="html=1;align=center;spacingLeft=4;verticalAlign=top;strokeColor=none;fillColor=none;" parent="3Mk5R_yZO1PZWtC-fWX1-10" vertex="1">
          <mxGeometry y="38" width="120" height="25" as="geometry" />
        </mxCell>
        <mxCell id="3Mk5R_yZO1PZWtC-fWX1-20" value="" style="fontStyle=1;align=center;verticalAlign=top;childLayout=stackLayout;horizontal=1;horizontalStack=0;resizeParent=1;resizeParentMax=0;resizeLast=0;marginBottom=0;strokeColor=#82b366;strokeWidth=2;fillColor=none;" parent="jJMDsLOJsHRA9ecIZqBr-1" vertex="1">
          <mxGeometry x="360" y="348.5" width="120" height="63" as="geometry" />
        </mxCell>
        <mxCell id="3Mk5R_yZO1PZWtC-fWX1-21" value="Request User&lt;br&gt;Merge" style="html=1;align=left;spacingLeft=4;verticalAlign=middle;strokeColor=none;fillColor=none;fontStyle=1" parent="3Mk5R_yZO1PZWtC-fWX1-20" vertex="1">
          <mxGeometry width="120" height="30" as="geometry" />
        </mxCell>
        <mxCell id="3Mk5R_yZO1PZWtC-fWX1-22" value="" style="shape=ellipse;" parent="3Mk5R_yZO1PZWtC-fWX1-21" vertex="1">
          <mxGeometry x="1" width="10" height="16" relative="1" as="geometry">
            <mxPoint x="-25" y="7" as="offset" />
          </mxGeometry>
        </mxCell>
        <mxCell id="3Mk5R_yZO1PZWtC-fWX1-23" value="" style="line;strokeWidth=1;fillColor=none;align=left;verticalAlign=middle;spacingTop=-1;spacingLeft=3;spacingRight=3;rotatable=0;labelPosition=right;points=[];portConstraint=eastwest;" parent="3Mk5R_yZO1PZWtC-fWX1-20" vertex="1">
          <mxGeometry y="30" width="120" height="8" as="geometry" />
        </mxCell>
        <mxCell id="3Mk5R_yZO1PZWtC-fWX1-24" value="." style="html=1;align=center;spacingLeft=4;verticalAlign=top;strokeColor=none;fillColor=none;" parent="3Mk5R_yZO1PZWtC-fWX1-20" vertex="1">
          <mxGeometry y="38" width="120" height="25" as="geometry" />
        </mxCell>
        <mxCell id="sVHChG9KCjbjKHvtkaMJ-3" style="edgeStyle=none;rounded=0;orthogonalLoop=1;jettySize=auto;html=1;entryX=1;entryY=0.5;entryDx=0;entryDy=0;endArrow=block;endFill=0;" parent="jJMDsLOJsHRA9ecIZqBr-1" source="sVHChG9KCjbjKHvtkaMJ-0" target="sVHChG9KCjbjKHvtkaMJ-1" edge="1">
          <mxGeometry relative="1" as="geometry" />
        </mxCell>
        <mxCell id="sVHChG9KCjbjKHvtkaMJ-4" style="edgeStyle=none;rounded=0;orthogonalLoop=1;jettySize=auto;html=1;entryX=0;entryY=1;entryDx=0;entryDy=0;endArrow=open;endFill=0;exitX=1;exitY=0;exitDx=0;exitDy=0;" parent="jJMDsLOJsHRA9ecIZqBr-1" source="sVHChG9KCjbjKHvtkaMJ-0" target="3Mk5R_yZO1PZWtC-fWX1-11" edge="1">
          <mxGeometry relative="1" as="geometry" />
        </mxCell>
        <mxCell id="sVHChG9KCjbjKHvtkaMJ-5" style="edgeStyle=none;rounded=0;orthogonalLoop=1;jettySize=auto;html=1;endArrow=open;endFill=0;exitX=1;exitY=0.5;exitDx=0;exitDy=0;" parent="jJMDsLOJsHRA9ecIZqBr-1" source="sVHChG9KCjbjKHvtkaMJ-0" edge="1">
          <mxGeometry relative="1" as="geometry">
            <mxPoint x="360" y="380" as="targetPoint" />
          </mxGeometry>
        </mxCell>
        <mxCell id="sVHChG9KCjbjKHvtkaMJ-11" style="edgeStyle=none;rounded=0;orthogonalLoop=1;jettySize=auto;html=1;entryX=0;entryY=0.75;entryDx=0;entryDy=0;endArrow=open;endFill=0;" parent="jJMDsLOJsHRA9ecIZqBr-1" source="sVHChG9KCjbjKHvtkaMJ-0" target="sVHChG9KCjbjKHvtkaMJ-7" edge="1">
          <mxGeometry relative="1" as="geometry" />
        </mxCell>
        <mxCell id="sVHChG9KCjbjKHvtkaMJ-0" value="&lt;p style=&quot;line-height: 100%&quot;&gt;&amp;lt;&amp;lt;actor&amp;gt;&amp;gt;&lt;br&gt;&lt;br&gt;&lt;b&gt;Authenticated&lt;br&gt;User&lt;/b&gt;&lt;/p&gt;" style="text;html=1;align=center;verticalAlign=middle;dashed=0;strokeColor=#000000;strokeWidth=2;" parent="jJMDsLOJsHRA9ecIZqBr-1" vertex="1">
          <mxGeometry x="240" y="341.5" width="80" height="77" as="geometry" />
        </mxCell>
        <mxCell id="sVHChG9KCjbjKHvtkaMJ-2" style="edgeStyle=none;rounded=0;orthogonalLoop=1;jettySize=auto;html=1;entryX=0;entryY=0.75;entryDx=0;entryDy=0;endArrow=open;endFill=0;" parent="jJMDsLOJsHRA9ecIZqBr-1" source="sVHChG9KCjbjKHvtkaMJ-1" target="3Mk5R_yZO1PZWtC-fWX1-1" edge="1">
          <mxGeometry relative="1" as="geometry" />
        </mxCell>
        <mxCell id="sVHChG9KCjbjKHvtkaMJ-1" value="&lt;p style=&quot;line-height: 100%&quot;&gt;&amp;lt;&amp;lt;actor&amp;gt;&amp;gt;&lt;br&gt;&lt;br&gt;&lt;b&gt;UnAuthenticated&lt;br&gt;Public User&lt;/b&gt;&lt;/p&gt;" style="text;html=1;align=center;verticalAlign=middle;dashed=0;strokeColor=#000000;strokeWidth=2;" parent="jJMDsLOJsHRA9ecIZqBr-1" vertex="1">
          <mxGeometry x="120" y="341.5" width="80" height="77" as="geometry" />
        </mxCell>
        <mxCell id="sVHChG9KCjbjKHvtkaMJ-6" value="" style="fontStyle=1;align=center;verticalAlign=top;childLayout=stackLayout;horizontal=1;horizontalStack=0;resizeParent=1;resizeParentMax=0;resizeLast=0;marginBottom=0;strokeColor=#82b366;strokeWidth=2;fillColor=none;" parent="jJMDsLOJsHRA9ecIZqBr-1" vertex="1">
          <mxGeometry x="360" y="437" width="120" height="63" as="geometry" />
        </mxCell>
        <mxCell id="sVHChG9KCjbjKHvtkaMJ-7" value="Accept User&lt;br&gt;Merge" style="html=1;align=left;spacingLeft=4;verticalAlign=middle;strokeColor=none;fillColor=none;fontStyle=1" parent="sVHChG9KCjbjKHvtkaMJ-6" vertex="1">
          <mxGeometry width="120" height="30" as="geometry" />
        </mxCell>
        <mxCell id="sVHChG9KCjbjKHvtkaMJ-8" value="" style="shape=ellipse;" parent="sVHChG9KCjbjKHvtkaMJ-7" vertex="1">
          <mxGeometry x="1" width="10" height="16" relative="1" as="geometry">
            <mxPoint x="-25" y="7" as="offset" />
          </mxGeometry>
        </mxCell>
        <mxCell id="sVHChG9KCjbjKHvtkaMJ-9" value="" style="line;strokeWidth=1;fillColor=none;align=left;verticalAlign=middle;spacingTop=-1;spacingLeft=3;spacingRight=3;rotatable=0;labelPosition=right;points=[];portConstraint=eastwest;" parent="sVHChG9KCjbjKHvtkaMJ-6" vertex="1">
          <mxGeometry y="30" width="120" height="8" as="geometry" />
        </mxCell>
        <mxCell id="sVHChG9KCjbjKHvtkaMJ-10" value="." style="html=1;align=center;spacingLeft=4;verticalAlign=top;strokeColor=none;fillColor=none;" parent="sVHChG9KCjbjKHvtkaMJ-6" vertex="1">
          <mxGeometry y="38" width="120" height="25" as="geometry" />
        </mxCell>
        <mxCell id="sVHChG9KCjbjKHvtkaMJ-12" value="" style="fontStyle=1;align=center;verticalAlign=top;childLayout=stackLayout;horizontal=1;horizontalStack=0;resizeParent=1;resizeParentMax=0;resizeLast=0;marginBottom=0;strokeColor=#82b366;strokeWidth=2;fillColor=none;" parent="jJMDsLOJsHRA9ecIZqBr-1" vertex="1">
          <mxGeometry x="360" y="530" width="120" height="63" as="geometry" />
        </mxCell>
        <mxCell id="sVHChG9KCjbjKHvtkaMJ-13" value="Merge Users" style="html=1;align=left;spacingLeft=4;verticalAlign=middle;strokeColor=none;fillColor=none;fontStyle=1" parent="sVHChG9KCjbjKHvtkaMJ-12" vertex="1">
          <mxGeometry width="120" height="30" as="geometry" />
        </mxCell>
        <mxCell id="sVHChG9KCjbjKHvtkaMJ-14" value="" style="shape=ellipse;" parent="sVHChG9KCjbjKHvtkaMJ-13" vertex="1">
          <mxGeometry x="1" width="10" height="16" relative="1" as="geometry">
            <mxPoint x="-25" y="7" as="offset" />
          </mxGeometry>
        </mxCell>
        <mxCell id="sVHChG9KCjbjKHvtkaMJ-15" value="" style="line;strokeWidth=1;fillColor=none;align=left;verticalAlign=middle;spacingTop=-1;spacingLeft=3;spacingRight=3;rotatable=0;labelPosition=right;points=[];portConstraint=eastwest;" parent="sVHChG9KCjbjKHvtkaMJ-12" vertex="1">
          <mxGeometry y="30" width="120" height="8" as="geometry" />
        </mxCell>
        <mxCell id="sVHChG9KCjbjKHvtkaMJ-16" value="." style="html=1;align=center;spacingLeft=4;verticalAlign=top;strokeColor=none;fillColor=none;" parent="sVHChG9KCjbjKHvtkaMJ-12" vertex="1">
          <mxGeometry y="38" width="120" height="25" as="geometry" />
        </mxCell>
        <mxCell id="sVHChG9KCjbjKHvtkaMJ-18" style="edgeStyle=none;rounded=0;orthogonalLoop=1;jettySize=auto;html=1;entryX=0;entryY=1;entryDx=0;entryDy=0;endArrow=open;endFill=0;" parent="jJMDsLOJsHRA9ecIZqBr-1" source="sVHChG9KCjbjKHvtkaMJ-17" target="sVHChG9KCjbjKHvtkaMJ-13" edge="1">
          <mxGeometry relative="1" as="geometry" />
        </mxCell>
        <mxCell id="sVHChG9KCjbjKHvtkaMJ-19" style="edgeStyle=none;rounded=0;orthogonalLoop=1;jettySize=auto;html=1;entryX=0.5;entryY=1;entryDx=0;entryDy=0;endArrow=block;endFill=0;" parent="jJMDsLOJsHRA9ecIZqBr-1" source="sVHChG9KCjbjKHvtkaMJ-17" target="sVHChG9KCjbjKHvtkaMJ-1" edge="1">
          <mxGeometry relative="1" as="geometry">
            <Array as="points">
              <mxPoint x="160" y="562" />
            </Array>
          </mxGeometry>
        </mxCell>
        <mxCell id="sVHChG9KCjbjKHvtkaMJ-17" value="&lt;p style=&quot;line-height: 100%&quot;&gt;&amp;lt;&amp;lt;actor&amp;gt;&amp;gt;&lt;br&gt;&lt;br&gt;&lt;b&gt;System&lt;br&gt;Daemon&lt;/b&gt;&lt;/p&gt;" style="text;html=1;align=center;verticalAlign=middle;dashed=0;strokeColor=#000000;strokeWidth=2;" parent="jJMDsLOJsHRA9ecIZqBr-1" vertex="1">
          <mxGeometry x="240" y="523" width="80" height="77" as="geometry" />
        </mxCell>
        <mxCell id="cENNXHEm5XNHABYloKq5-0" value="Title" parent="jJMDsLOJsHRA9ecIZqBr-0" visible="0" />
        <mxCell id="BW_KTFOAbpTylYArNgOf-21" value="&lt;font style=&quot;font-size: 12px ; font-weight: normal&quot;&gt;&lt;i&gt;&lt;span style=&quot;font-size: 12px&quot;&gt;Diagram: Base System Logical Module -&amp;nbsp;&lt;/span&gt;&lt;span style=&quot;font-size: 12px&quot;&gt;Functionality -&amp;nbsp;&lt;/span&gt;System Users&lt;/i&gt;&lt;/font&gt;" style="text;strokeColor=none;fillColor=none;html=1;fontSize=12;fontStyle=1;verticalAlign=middle;align=left;shadow=0;glass=0;comic=0;opacity=30;fontColor=#808080;" parent="cENNXHEm5XNHABYloKq5-0" vertex="1">
          <mxGeometry x="120" y="800" width="560" height="40" as="geometry" />
        </mxCell>
        <mxCell id="cENNXHEm5XNHABYloKq5-1" value="Notes" parent="jJMDsLOJsHRA9ecIZqBr-0" />
        <mxCell id="BW_KTFOAbpTylYArNgOf-20" value="Merging Users is difficult to undo, and&amp;nbsp;can release private information. Hence, Authenticated User requests merge with second identity associated to self, which sends of email, with link to trigger Acceptance of request. Hence safe." style="shape=note;whiteSpace=wrap;html=1;size=14;verticalAlign=top;align=left;spacingTop=-6;" parent="cENNXHEm5XNHABYloKq5-1" vertex="1">
          <mxGeometry x="500" y="460" width="160" height="140" as="geometry" />
        </mxCell>
        <mxCell id="2Mfwxpr1ShzDx-wQTVwy-0" value="Roles are Group specific, and cascade down to child Groups.&amp;nbsp;&lt;br&gt;" style="shape=note;whiteSpace=wrap;html=1;size=14;verticalAlign=top;align=left;spacingTop=-6;" parent="cENNXHEm5XNHABYloKq5-1" vertex="1">
          <mxGeometry x="500" y="160" width="160" height="50" as="geometry" />
        </mxCell>
        <mxCell id="2Mfwxpr1ShzDx-wQTVwy-1" value="Groups in turn own Assets&lt;br&gt;to which Users are assigned&amp;nbsp;&lt;br&gt;&lt;i&gt;&lt;b&gt;Resource Roles&lt;/b&gt;&lt;/i&gt; (Creator, Contributor, Reviewer, Publisher, etc.)" style="shape=note;whiteSpace=wrap;html=1;size=14;verticalAlign=top;align=left;spacingTop=-6;" parent="cENNXHEm5XNHABYloKq5-1" vertex="1">
          <mxGeometry x="500" y="348.5" width="160" height="70" as="geometry" />
        </mxCell>
        <mxCell id="2Mfwxpr1ShzDx-wQTVwy-2" value="&lt;b&gt;&lt;i&gt;Group Roles&lt;/i&gt;&lt;/b&gt; often reflect RASCI responsibilities (Accountable/Owner, Responsible/Managing, Group Contact Person (shielding Owner), Members, Guests, Consultants, Informed users." style="shape=note;whiteSpace=wrap;html=1;size=14;verticalAlign=top;align=left;spacingTop=-6;" parent="cENNXHEm5XNHABYloKq5-1" vertex="1">
          <mxGeometry x="500" y="223" width="160" height="110" as="geometry" />
        </mxCell>
      </root>
    </mxGraphModel>
  </diagram>
</mxfile>
